<svg id="Layer_2" data-name="Layer 2" xmlns="http://www.w3.org/2000/svg" viewBox="0 0 531.22 821.88"><defs><style>.cls-1{fill:none;stroke:#c5bc9f;stroke-miterlimit:10;}</style></defs><path class="cls-1" d="M44.17,586.18a53.4,53.4,0,0,0-11.57,36,66.39,66.39,0,0,0,11.25,35,65.66,65.66,0,0,0,20.89,19.61,126.51,126.51,0,0,0,62.36,7.71,21.72,21.72,0,0,0,7.71-13.5A104.55,104.55,0,0,0,88.2,592c-1.51-.84-14.08-7.54-28-1.61-16.23,6.94-18.85,24.55-19,25.4a98.51,98.51,0,0,0,64,73.28,262.31,262.31,0,0,1,39.86,27,261.94,261.94,0,0,1,43.07,45,179.36,179.36,0,0,0,46.93,45,177.12,177.12,0,0,0,27.64,14.79,15.72,15.72,0,0,0,2.89-10.93A15.93,15.93,0,0,0,258.88,799,194.55,194.55,0,0,1,212,747.53a109.34,109.34,0,0,0-27-34.71c-25.8-22-54.61-25.33-65.57-26l-36.32-3.21c-17.18-1.1-29.23,3.58-30.53,10-.26,1.27-.45,4.3,3.65,9A201,201,0,0,0,105,733.6c25,11.23,46.53,16.67,69,17.15l160.28,3.43,97.29-6.86a172.07,172.07,0,0,0,105.14-49.21c2.75-5.59,9.46-21.23,4.1-38.06-7.36-23.14-34.64-39.43-66.6-36.59-4.83.19-28.56,1.58-38.79,18.43a31,31,0,0,0-3,6.64A95.5,95.5,0,0,0,485.81,635a115.92,115.92,0,0,0,70.72-61.94c1.88-3.8,10.79-22.74,3.21-44.77a57.92,57.92,0,0,0-20.57-27.64c-3.62-2.29-13.32-7.69-25.6-6.12-15.66,2-29.1,14.53-34.19,31.83L456.88,592A228.78,228.78,0,0,1,410,683.89,145.93,145.93,0,0,1,365.6,713c-40.9,17.12-78.34,10.41-93.22,6.86A168.81,168.81,0,0,1,142.53,618.32a319.17,319.17,0,0,1-42.43-144c-.46-9.13,0-26.9,10.5-44.61,23.19-39.24,73-40.24,76.28-40.25a817.3,817.3,0,0,1,201.22-5.14,166.75,166.75,0,0,1,56.57,21.86c15.35,11.28,23.15,29.55,19.93,46.92-3.31,17.82-16.88,27.5-19.93,29.58A124.29,124.29,0,0,1,370.74,509L228,510.32,180.45,502c-11.75-1.37-20.67-8.48-22.28-17.14a18.34,18.34,0,0,1,1.71-11.14c2.39-.08,8.25.08,12.22,4.07,5.84,5.87,5.73,18.17-2.57,28.28a117.29,117.29,0,0,0-23.79,70.5,21,21,0,0,0,34.71,19.93c3.43-2.65,12.48-10.42,14.72-23,3-16.66-7.18-35-25.64-44.47A16.44,16.44,0,0,1,156.67,506a25,25,0,0,0-1.93-14.57c-5.1-10.85-16.48-13.59-18-13.93-14.67-10.87-16.94-20.48-17.36-25.07-2.13-23.28,31.16-51.76,86.15-64.28a762.24,762.24,0,0,1,86.12-7.6c26.08-.83,50.4-.25,72.66,1.17a92.8,92.8,0,0,1,39,8.64,90.9,90.9,0,0,1,18.18,11.29c7.67,5,21.2,15.57,23.14,30.85,3,24-23.29,54.33-68.14,62.36a164.73,164.73,0,0,1-143.36-3.21c-1.53-1-13.92-9-15.43-24.43a33.12,33.12,0,0,1,15.43-30.86,150.17,150.17,0,0,1,75.57-30.21c23.91-3.66,41.7-.11,44.64,8.35.62,1.79.87,4.65-1.28,9-1.05,6.81-3.73,10-5.79,11.57-9.92,7.71-32.48.19-55.28-20.57-2-1.49-17-13.28-17.36-33.43-.32-15.73,8.37-30.55,22.5-38.57a45.14,45.14,0,0,0,19.15-17.3c9.52-15.88,5.5-32.2,4.63-35.41a18.14,18.14,0,0,0-7.07-9c-8.4-5.4-18-1-18.64-.64-6.24,2.69-8.76,9.76-6.43,14.78,2.53,5.45,10.54,8,16.72,3.86,11.19-.94,19.74-10.1,19.92-20.57a21.38,21.38,0,0,0-15.71-20.57c-17.71-1.06-31.88-13.19-34.55-28.29-2.85-16.07,8.6-28.31,9.92-29.68,5.3-6,11.07-12.11,17.35-18.32,9.57-9.45,19-17.78,28-25.07a24.13,24.13,0,0,1,16.39-4.82c12.72,1.15,18.86,12.67,19.29,13.5a24.64,24.64,0,0,1-10.61,19.28c-23.29,16.63-54.31,10.42-67.5-9.64-10.55-16-8.62-39.32,5.79-55.93a92.68,92.68,0,0,0,31.82-73.28A76.83,76.83,0,0,0,287,0" transform="translate(-32.03 0.44)"/></svg>